<?xml version="1.0" encoding="UTF-8" standalone="no"?>
<svg
   width="64"
   height="64"
   viewBox="0 0 64 64"
   version="1.1"
   id="svg15"
   sodipodi:docname="ko-fi-icon.svg"
   inkscape:version="1.1 (c68e22c387, 2021-05-23)"
   xmlns:inkscape="http://www.inkscape.org/namespaces/inkscape"
   xmlns:sodipodi="http://sodipodi.sourceforge.net/DTD/sodipodi-0.dtd"
   xmlns="http://www.w3.org/2000/svg"
   xmlns:svg="http://www.w3.org/2000/svg"
   xmlns:rdf="http://www.w3.org/1999/02/22-rdf-syntax-ns#"
   xmlns:cc="http://creativecommons.org/ns#"
   xmlns:dc="http://purl.org/dc/elements/1.1/">
  <metadata
     id="metadata21">
    <rdf:RDF>
      <cc:Work
         rdf:about="">
        <dc:format>image/svg+xml</dc:format>
        <dc:type
           rdf:resource="http://purl.org/dc/dcmitype/StillImage" />
        <dc:title>Artboard</dc:title>
      </cc:Work>
    </rdf:RDF>
  </metadata>
  <defs
     id="defs19" />
  <sodipodi:namedview
     pagecolor="#ffffff"
     bordercolor="#666666"
     borderopacity="1"
     objecttolerance="10"
     gridtolerance="10"
     guidetolerance="10"
     inkscape:pageopacity="0"
     inkscape:pageshadow="2"
     inkscape:window-width="1920"
     inkscape:window-height="1027"
     id="namedview17"
     showgrid="false"
     inkscape:zoom="7.7045454"
     inkscape:cx="30.761062"
     inkscape:cy="43.156343"
     inkscape:window-x="-8"
     inkscape:window-y="22"
     inkscape:window-maximized="1"
     inkscape:current-layer="Group-4"
     inkscape:pagecheckerboard="0" />
  <!-- Generator: Sketch 53.2 (72643) - https://sketchapp.com -->
  <title
     id="title2">Artboard</title>
  <desc
     id="desc4">Created with Sketch.</desc>
  <g
     id="g856"
     transform="matrix(1.9656019,0,0,1.9656019,-2.8167172e-7,-51.10565)">
    <g
       transform="translate(0,26)"
       id="Group-4"
       style="display:inline;fill:none;fill-rule:nonzero;stroke:none;stroke-width:1">
      <path
         id="Oval"
         style="display:inline;fill:#000000;fill-opacity:1;stroke-width:1.9656"
         d="M 32,0 A 32,32 0 0 0 0,32 32,32 0 0 0 32,64 32,32 0 0 0 64,32 32,32 0 0 0 32,0 Z M 12.060547,17.296875 H 43.75 46.910156 c 6.094891,0 11.035157,4.942218 11.035156,11.037109 v 0.648438 c 0,6.094891 -4.940265,11.035156 -11.035156,11.035156 H 43.75 v 3.322266 c 0,2.813028 -2.280722,5.091797 -5.09375,5.091797 H 14.607422 c -2.813027,0 -5.0937501,-2.278769 -5.0937501,-5.091797 V 19.84375 c 0,-1.406514 1.1403611,-2.546875 2.5468751,-2.546875 z M 43.75,23.1875 v 10.939453 h 2.880859 c 3.020824,0 5.470703,-2.447926 5.470703,-5.46875 0,-3.020825 -2.449879,-5.470703 -5.470703,-5.470703 z"
         transform="scale(0.50875002)" />
    </g>
    <g
       id="Group"
       transform="translate(4.84,34.8)"
       style="display:inline;fill:#000000;fill-opacity:1;fill-rule:nonzero;stroke:none;stroke-width:1">
      <path
         d="M 8.36,5.2768458 C 8.7602942,4.1056152 9.7089414,3.52 11.205941,3.52 c 2.2455,0 3.077965,2.7936503 1.900934,4.62 C 12.322188,9.3575665 10.739896,10.897567 8.36,12.76 5.9801039,10.897567 4.3978123,9.3575665 3.613125,8.14 2.4360941,6.3136503 3.2685587,3.52 5.5140587,3.52 7.0110586,3.52 7.9597058,4.1056152 8.36,5.2768458 Z"
         id="Path-2"
         inkscape:connector-curvature="0"
         style="fill:#000000;fill-opacity:1" />
    </g>
  </g>
</svg>
